#!OML:ASF X:\für Bonn\!DataBase\2005_08_11_Bastian_Final\c3d\Bastian.ASF
:FULLY-SPECIFIED
:DEGREES
220
root -0.0605688 6.35644 24.6797 -760.493 -195.147 -726.297
lowerback 79.0599 -11.526 -10.8817
upperback 20.9319 -2.84488 1.851
thorax 4.05873 4.064 7.69345
lowerneck -24.1914 2.89393 -1.70391
upperneck -7.18253 6.00798 -8.62087
head 2.00381 3.44586 -2.01269
rclavicle 7.4743e-014 -2.14687e-014
rhumerus 0.473791 11.3719 -67.2597
rradius 24.9077
rwrist -26.9238
rhand -27.5226 -12.2364
rfingers 7.12502
rthumb -0.924859 -42.2141
lclavicle 7.4743e-014 -2.14687e-014
lhumerus 23.1315 -19.7275 10.7729
lradius 59.3598
lwrist 17.3549
lhand -7.55243 -15.9321
lfingers 7.12502
lthumb 18.3394 13.2234
rfemur -69.1289 -21.0399 25.8293
rtibia 143.559
rfoot -30.5286 -0.00316829
rtoes 9.26604
lfemur -67.0306 39.9578 -15.8612
ltibia 139.69
lfoot -28.336 -16.7216
ltoes -11.1344
221
root -0.0181104 6.26564 24.6809 -761.272 -194.914 -726.377
lowerback 78.7879 -11.4265 -11.2376
upperback 21.1372 -2.92244 1.69221
thorax 4.30169 4.05745 7.70346
lowerneck -23.7735 2.90837 -1.77854
upperneck -7.08976 5.98683 -8.47359
head 1.95588 3.42677 -1.95611
rclavicle 7.95139e-015 -6.20208e-014
rhumerus -0.225125 12.471 -67.6143
rradius 25.5694
rwrist -28.1624
rhand -28.5337 -12.5775
rfingers 7.12502
rthumb -1.90134 -42.5488
lclavicle 7.95139e-015 -6.20208e-014
lhumerus 23.082 -19.5313 10.6733
lradius 59.4824
lwrist 17.4145
lhand -7.6726 -15.8452
lfingers 7.12502
lthumb 18.2238 13.3211
rfemur -68.7922 -21.8028 25.9356
rtibia 144.117
rfoot -30.6777 -0.211306
rtoes 9.94009
lfemur -66.6519 40.7455 -15.2006
ltibia 140.118
lfoot -28.1409 -17.2272
ltoes -11.2266
222
root 0.02428 6.17867 24.6821 -762.035 -194.724 -726.403
lowerback 78.5377 -11.334 -11.5408
upperback 21.3436 -2.95707 1.52289
thorax 4.5414 4.08133 7.66695
lowerneck -23.4297 2.91517 -1.79021
upperneck -6.95547 5.9468 -8.3334
head 1.93731 3.3934 -1.91377
rclavicle -9.70069e-014 7.55382e-014
rhumerus -0.792052 13.2231 -68.0736
rradius 25.9133
rwrist -29.1069
rhand -29.494 -12.5923
rfingers 7.12502
rthumb -2.82881 -42.5533
lclavicle -9.70069e-014 7.55382e-014
lhumerus 23.198 -19.3495 10.5073
lradius 59.5651
lwrist 17.4869
lhand -7.85916 -15.7127
lfingers 7.12502
lthumb 18.0444 13.4703
rfemur -68.4367 -22.3401 26.1533
rtibia 144.625
rfoot -30.7741 -0.554514
rtoes 10.5197
lfemur -66.2532 41.5346 -14.4162
ltibia 140.528
lfoot -27.9324 -17.7602
ltoes -11.3455
223
root 0.066742 6.09646 24.6843 -762.764 -194.487 -726.453
lowerback 78.2825 -11.2374 -11.8245
upperback 21.521 -2.98223 1.36232
thorax 4.7451 4.10823 7.62739
lowerneck -23.1493 2.90113 -1.77007
upperneck -6.79288 5.87838 -8.18978
head 1.93954 3.34358 -1.87753
rclavicle -1.11319e-014 7.23576e-014
rhumerus -1.30534 13.8249 -68.5591
rradius 26.0943
rwrist -29.9459
rhand -30.4249 -12.5068
rfingers 7.12502
rthumb -3.72776 -42.454
lclavicle -1.11319e-014 7.23576e-014
lhumerus 23.4375 -19.1636 10.3574
lradius 59.6026
lwrist 17.5611
lhand -8.0136 -15.5752
lfingers 7.12502
lthumb 17.8958 13.6215
rfemur -68.1247 -22.8943 26.3287
rtibia 145.084
rfoot -30.809 -0.948521
rtoes 10.9849
lfemur -65.8526 42.0815 -13.7
ltibia 140.888
lfoot -27.6168 -18.3136
ltoes -11.1156
224
root 0.110102 6.01804 24.6865 -763.433 -194.275 -726.459
lowerback 77.9649 -11.1363 -12.0606
upperback 21.7018 -2.97646 1.23331
thorax 4.94012 4.14083 7.59769
lowerneck -22.8395 2.86529 -1.7831
upperneck -6.62241 5.78644 -8.03329
head 1.93695 3.28258 -1.83361
rclavicle -4.77083e-014 -1.05753e-013
rhumerus -1.69245 14.1487 -69.072
rradius 25.975
rwrist -30.5307
rhand -31.2121 -12.2099
rfingers 7.12502
rthumb -4.48792 -42.1424
lclavicle -4.77083e-014 -1.05753e-013
lhumerus 23.7768 -19.0156 10.2774
lradius 59.5651
lwrist 17.6415
lhand -8.1743 -15.4475
lfingers 7.12502
lthumb 17.7411 13.7632
rfemur -67.8821 -23.2872 26.6029
rtibia 145.502
rfoot -30.7747 -1.29959
rtoes 11.6397
lfemur -65.5122 42.5839 -12.9584
ltibia 141.228
lfoot -27.357 -18.7959
ltoes -11.2224
225
root 0.153588 5.94332 24.6879 -764.119 -194.022 -726.496
lowerback 77.61 -11.016 -12.3317
upperback 21.9067 -2.96084 1.09709
thorax 5.16353 4.17702 7.575
lowerneck -22.543 2.82793 -1.77573
upperneck -6.45181 5.68994 -7.88953
head 1.93779 3.21906 -1.79783
rclavicle 1.90833e-014 6.67916e-014
rhumerus -2.07185 14.4543 -69.5795
rradius 25.8239
rwrist -31.1412
rhand -31.8894 -11.9199
rfingers 7.12502
rthumb -5.14191 -41.8375
lclavicle 1.90833e-014 6.67916e-014
lhumerus 24.1502 -18.8506 10.2442
lradius 59.4921
lwrist 17.6209
lhand -8.32356 -15.3501
lfingers 7.12502
lthumb 17.5975 13.8735
rfemur -67.5899 -23.7333 26.811
rtibia 145.877
rfoot -30.7105 -1.70094
rtoes 12.1395
lfemur -65.1088 42.9603 -12.2572
ltibia 141.524
lfoot -27.0741 -19.2472
ltoes -11.3259
226
root 0.200147 5.8718 24.69 -764.748 -193.761 -726.525
lowerback 77.1857 -10.8606 -12.6113
upperback 22.1124 -2.92836 0.966363
thorax 5.38166 4.20994 7.55865
lowerneck -22.2159 2.80357 -1.71465
upperneck -6.28221 5.59226 -7.72592
head 1.934 3.15381 -1.76543
rclavicle 1.11319e-014 3.89618e-014
rhumerus -2.45282 14.5521 -70.1665
rradius 25.5518
rwrist -31.4898
rhand -32.4407 -11.566
rfingers 7.12502
rthumb -5.67428 -41.47
lclavicle 1.11319e-014 3.89618e-014
lhumerus 24.5078 -18.717 10.2349
lradius 59.4379
lwrist 17.5935
lhand -8.44949 -15.297
lfingers 7.12502
lthumb 17.4763 13.9374
rfemur -67.3878 -24.1313 27.0852
rtibia 146.248
rfoot -30.5858 -2.11334
rtoes 12.9578
lfemur -64.7713 43.2965 -11.5703
ltibia 141.798
lfoot -26.7681 -19.7172
ltoes -11.4662
